<svg width="387" height="599" viewBox="0 0 387 599" fill="none" xmlns="http://www.w3.org/2000/svg">
<path d="M204.022 555.621C174.921 569.043 143.801 577.371 112.015 580.307C108.802 580.604 104.622 577.919 104.622 572.367C104.622 567.779 108.657 562.366 115.781 561.558C143.611 558.402 170.823 550.818 196.372 539.034C230.939 523.091 261.638 499.839 286.35 470.884C311.062 441.928 329.2 407.957 339.513 371.313C349.825 334.67 352.068 296.225 346.085 258.631C340.103 221.037 326.038 185.187 304.86 153.555C283.682 121.923 255.895 95.2598 223.415 75.4053C190.936 55.5509 154.537 42.9771 116.728 38.5512C88.7837 35.2801 60.5611 36.5172 33.1268 42.1558C26.1037 43.5993 20.5877 39.7055 19.1637 35.3444C17.4404 30.0672 20.5806 26.2173 23.7266 25.5022C54.8538 18.4267 87.0216 16.6832 118.851 20.4091C159.284 25.1422 198.209 38.5884 232.942 59.8206C267.676 81.0528 297.39 109.566 320.038 143.393C342.685 177.22 357.727 215.557 364.124 255.76C370.522 295.963 368.124 337.075 357.095 376.262C346.067 415.448 326.67 451.777 300.243 482.741C273.817 513.706 240.988 538.571 204.022 555.621Z" stroke="url(#paint0_linear_32_335)" stroke-width="37"/>
<defs>
<linearGradient id="paint0_linear_32_335" x1="-2.10547" y1="87.5003" x2="5.72479" y2="651.678" gradientUnits="userSpaceOnUse">
<stop stop-color="white"/>
<stop offset="1" stop-color="#09A66D"/>
</linearGradient>
</defs>
</svg>
